<?xml version="1.0" encoding="UTF-8" standalone="no"?>
<!-- Created with Bouml (http://bouml.free.fr/) -->
<!DOCTYPE svg PUBLIC "-//W3C//DTD SVG 1.1//EN" "http://www.w3.org/Graphics/SVG/1.1/DTD/svg11.dtd">
<svg width="1951" height="1127" version="1.1" xmlns="http://www.w3.org/2000/svg">
<g>
	<text font-family="Helvetica" font-size="8" fill="#000000" xml:space="preserve" x="1757" y="215">texture_</text>
</g>
<g>
	<text font-family="Helvetica" font-size="8" fill="#000000" xml:space="preserve" x="1283" y="254">light_data_</text>
</g>
<g>
	<text font-family="Helvetica" font-size="8" fill="#000000" xml:space="preserve" x="1573" y="410">shader_</text>
</g>
<g>
	<rect fill="#cbcbcb" stroke="none" stroke-opacity="1" x="1265" y="501" width="2" height="134" />
	<rect fill="#cbcbcb" stroke="none" stroke-opacity="1" x="1123" y="633" width="144" height="2" />
	<rect fill="#ffffc0" stroke="black" stroke-width="1" stroke-opacity="1" x="1120" y="498" width="145" height="135" />
	<text font-family="Helvetica" font-size="8" fill="#000000" xml:space="preserve" font-weight="bold" text-anchor="middle" x="1193" y="507">Ellipsoid</text>
	<line stroke="black" stroke-opacity="1" x1="1120" y1="524" x2="1265" y2="524" />
	<line stroke="black" stroke-opacity="1" x1="1120" y1="530" x2="1265" y2="530" />
	<text font-family="Helvetica" font-size="8" fill="#000000" xml:space="preserve" x="1123" y="539">Ellipsoid()</text>
	<text font-family="Helvetica" font-size="8" fill="#000000" xml:space="preserve" x="1123" y="564">~Ellipsoid()</text>
	<text font-family="Helvetica" font-size="8" fill="#000000" xml:space="preserve" x="1123" y="589">RayIntersects()</text>
	<text font-family="Helvetica" font-size="8" fill="#000000" xml:space="preserve" x="1123" y="614">Normal()</text>
</g>
<g>
	<rect fill="#cbcbcb" stroke="none" stroke-opacity="1" x="1073" y="62" width="2" height="358" />
	<rect fill="#cbcbcb" stroke="none" stroke-opacity="1" x="863" y="418" width="212" height="2" />
	<rect fill="#ffffc0" stroke="black" stroke-width="1" stroke-opacity="1" x="860" y="59" width="213" height="359" />
	<text font-family="Helvetica" font-size="8" fill="#000000" xml:space="preserve" font-weight="bold" font-style="italic" text-anchor="middle" x="967" y="68">LitSceneObject</text>
	<line stroke="black" stroke-opacity="1" x1="860" y1="85" x2="1073" y2="85" />
	<line stroke="black" stroke-opacity="1" x1="860" y1="91" x2="1073" y2="91" />
	<text font-family="Helvetica" font-size="8" fill="#000000" xml:space="preserve" x="863" y="100">LitSceneObject()</text>
	<text font-family="Helvetica" font-size="8" fill="#000000" xml:space="preserve" x="863" y="125">LitSceneObject()</text>
	<text font-family="Helvetica" font-size="8" fill="#000000" xml:space="preserve" x="863" y="150">~LitSceneObject()</text>
	<text font-family="Helvetica" font-size="8" fill="#000000" xml:space="preserve" font-style="italic" x="863" y="175">RayIntersects()</text>
	<text font-family="Helvetica" font-size="8" fill="#000000" xml:space="preserve" font-style="italic" x="863" y="200">Normal()</text>
	<text font-family="Helvetica" font-size="8" fill="#000000" xml:space="preserve" x="863" y="225">DiffuseColor()</text>
	<text font-family="Helvetica" font-size="8" fill="#000000" xml:space="preserve" x="863" y="250">Specularity()</text>
	<text font-family="Helvetica" font-size="8" fill="#000000" xml:space="preserve" x="863" y="275">KScalars()</text>
	<text font-family="Helvetica" font-size="8" fill="#000000" xml:space="preserve" x="863" y="300">SpecularColor()</text>
	<text font-family="Helvetica" font-size="8" fill="#000000" xml:space="preserve" x="863" y="325">Opacity()</text>
	<text font-family="Helvetica" font-size="8" fill="#000000" xml:space="preserve" x="863" y="350">IndexOfRefraction()</text>
	<text font-family="Helvetica" font-size="8" fill="#000000" xml:space="preserve" x="863" y="375">IsTransparent()</text>
	<text font-family="Helvetica" font-size="8" fill="#000000" xml:space="preserve" font-style="italic" x="863" y="400">TextureCoordinatesAt()</text>
</g>
<g>
	<line stroke="#000000" stroke-opacity="1" x1="1194" y1="497" x2="1194" y2="462" />
</g>
<g>
	<line stroke="#000000" stroke-opacity="1" x1="1194" y1="462" x2="971" y2="462" />
</g>
<g>
	<line stroke="#000000" stroke-opacity="1" x1="971" y1="462" x2="971" y2="427" />
	<line stroke="#000000" stroke-opacity="1" x1="971" y1="421" x2="965" y2="427" />
	<line stroke="#000000" stroke-opacity="1" x1="971" y1="421" x2="977" y2="427" />
	<line stroke="#000000" stroke-opacity="1" x1="965" y1="427" x2="977" y2="427" />
</g>
<g>
	<rect fill="#cbcbcb" stroke="none" stroke-opacity="1" x="816" y="504" width="2" height="228" />
	<rect fill="#cbcbcb" stroke="none" stroke-opacity="1" x="606" y="730" width="212" height="2" />
	<rect fill="#ffffc0" stroke="black" stroke-width="1" stroke-opacity="1" x="603" y="501" width="213" height="229" />
	<text font-family="Helvetica" font-size="8" fill="#000000" xml:space="preserve" font-weight="bold" text-anchor="middle" x="710" y="510">PolyObject</text>
	<line stroke="black" stroke-opacity="1" x1="603" y1="527" x2="816" y2="527" />
	<text font-family="Helvetica" font-size="8" fill="#000000" xml:space="preserve" x="606" y="536">tris_</text>
	<line stroke="black" stroke-opacity="1" x1="603" y1="553" x2="816" y2="553" />
	<text font-family="Helvetica" font-size="8" fill="#000000" xml:space="preserve" x="606" y="562">PolyObject()</text>
	<text font-family="Helvetica" font-size="8" fill="#000000" xml:space="preserve" x="606" y="587">PolyObject()</text>
	<text font-family="Helvetica" font-size="8" fill="#000000" xml:space="preserve" x="606" y="612">PolyObject()</text>
	<text font-family="Helvetica" font-size="8" fill="#000000" xml:space="preserve" x="606" y="637">~PolyObject()</text>
	<text font-family="Helvetica" font-size="8" fill="#000000" xml:space="preserve" x="606" y="662">Normal()</text>
	<text font-family="Helvetica" font-size="8" fill="#000000" xml:space="preserve" x="606" y="687">RayIntersects()</text>
	<text font-family="Helvetica" font-size="8" fill="#000000" xml:space="preserve" x="606" y="712">TextureCoordinatesAt()</text>
</g>
<g>
	<rect fill="#cbcbcb" stroke="none" stroke-opacity="1" x="416" y="452" width="2" height="334" />
	<rect fill="#cbcbcb" stroke="none" stroke-opacity="1" x="234" y="784" width="184" height="2" />
	<rect fill="#ffffc0" stroke="black" stroke-width="1" stroke-opacity="1" x="231" y="449" width="185" height="335" />
	<text font-family="Helvetica" font-size="8" fill="#000000" xml:space="preserve" font-weight="bold" font-style="italic" text-anchor="middle" x="324" y="458">SceneObject</text>
	<line stroke="black" stroke-opacity="1" x1="231" y1="475" x2="416" y2="475" />
	<line stroke="black" stroke-opacity="1" x1="231" y1="481" x2="416" y2="481" />
	<text font-family="Helvetica" font-size="8" fill="#000000" xml:space="preserve" x="234" y="490">SceneObject()</text>
	<text font-family="Helvetica" font-size="8" fill="#000000" xml:space="preserve" x="234" y="515">~SceneObject()</text>
	<text font-family="Helvetica" font-size="8" fill="#000000" xml:space="preserve" font-style="italic" x="234" y="540">RayIntersects()</text>
	<text font-family="Helvetica" font-size="8" fill="#000000" xml:space="preserve" font-style="italic" x="234" y="565">Normal()</text>
	<text font-family="Helvetica" font-size="8" fill="#000000" xml:space="preserve" font-style="italic" x="234" y="590">DiffuseColor()</text>
	<text font-family="Helvetica" font-size="8" fill="#000000" xml:space="preserve" font-style="italic" x="234" y="615">IndexOfRefraction()</text>
	<text font-family="Helvetica" font-size="8" fill="#000000" xml:space="preserve" font-style="italic" x="234" y="640">Specularity()</text>
	<text font-family="Helvetica" font-size="8" fill="#000000" xml:space="preserve" font-style="italic" x="234" y="665">KScalars()</text>
	<text font-family="Helvetica" font-size="8" fill="#000000" xml:space="preserve" font-style="italic" x="234" y="690">SpecularColor()</text>
	<text font-family="Helvetica" font-size="8" fill="#000000" xml:space="preserve" font-style="italic" x="234" y="715">Opacity()</text>
	<text font-family="Helvetica" font-size="8" fill="#000000" xml:space="preserve" font-style="italic" x="234" y="740">IsTransparent()</text>
	<text font-family="Helvetica" font-size="8" fill="#000000" xml:space="preserve" x="234" y="765">Position()</text>
</g>
<g>
	<rect fill="#cbcbcb" stroke="none" stroke-opacity="1" x="1074" y="501" width="2" height="204" />
	<rect fill="#cbcbcb" stroke="none" stroke-opacity="1" x="864" y="703" width="212" height="2" />
	<rect fill="#ffffc0" stroke="black" stroke-width="1" stroke-opacity="1" x="861" y="498" width="213" height="205" />
	<text font-family="Helvetica" font-size="8" fill="#000000" xml:space="preserve" font-weight="bold" text-anchor="middle" x="968" y="507">Sphere</text>
	<line stroke="black" stroke-opacity="1" x1="861" y1="524" x2="1074" y2="524" />
	<text font-family="Helvetica" font-size="8" fill="#000000" xml:space="preserve" x="864" y="533">radius_</text>
	<line stroke="black" stroke-opacity="1" x1="861" y1="550" x2="1074" y2="550" />
	<text font-family="Helvetica" font-size="8" fill="#000000" xml:space="preserve" x="864" y="559">TextureCoordinatesAt()</text>
	<text font-family="Helvetica" font-size="8" fill="#000000" xml:space="preserve" x="864" y="584">Sphere()</text>
	<text font-family="Helvetica" font-size="8" fill="#000000" xml:space="preserve" x="864" y="609">Sphere()</text>
	<text font-family="Helvetica" font-size="8" fill="#000000" xml:space="preserve" x="864" y="634">~Sphere()</text>
	<text font-family="Helvetica" font-size="8" fill="#000000" xml:space="preserve" x="864" y="659">RayIntersects()</text>
	<text font-family="Helvetica" font-size="8" fill="#000000" xml:space="preserve" x="864" y="684">Normal()</text>
</g>
<g>
	<line stroke="#000000" stroke-opacity="1" x1="972" y1="497" x2="971" y2="426" />
	<line stroke="#000000" stroke-opacity="1" x1="971" y1="421" x2="965" y2="427" />
	<line stroke="#000000" stroke-opacity="1" x1="971" y1="421" x2="977" y2="426" />
	<line stroke="#000000" stroke-opacity="1" x1="965" y1="427" x2="977" y2="426" />
</g>
<g>
	<line stroke="#000000" stroke-opacity="1" x1="714" y1="500" x2="714" y2="462" />
</g>
<g>
	<line stroke="#000000" stroke-opacity="1" x1="859" y1="245" x2="424" y2="502" />
	<line stroke="#000000" stroke-opacity="1" x1="419" y1="506" x2="427" y2="508" />
	<line stroke="#000000" stroke-opacity="1" x1="419" y1="506" x2="421" y2="497" />
	<line stroke="#000000" stroke-opacity="1" x1="427" y1="508" x2="421" y2="497" />
</g>
<g>
	<line stroke="#000000" stroke-opacity="1" x1="714" y1="462" x2="971" y2="462" />
</g>
<g>
	<rect fill="#cbcbcb" stroke="none" stroke-opacity="1" x="1758" y="914" width="2" height="154" />
	<rect fill="#cbcbcb" stroke="none" stroke-opacity="1" x="1536" y="1066" width="224" height="2" />
	<rect fill="#ffffc0" stroke="black" stroke-width="1" stroke-opacity="1" x="1533" y="911" width="225" height="155" />
	<text font-family="Helvetica" font-size="8" fill="#000000" xml:space="preserve" font-weight="bold" text-anchor="middle" x="1646" y="920">PolyObject::Triangle</text>
	<line stroke="black" stroke-opacity="1" x1="1533" y1="937" x2="1758" y2="937" />
	<text font-family="Helvetica" font-size="8" fill="#000000" xml:space="preserve" x="1536" y="946">area_</text>
	<line stroke="black" stroke-opacity="1" x1="1533" y1="963" x2="1758" y2="963" />
	<text font-family="Helvetica" font-size="8" fill="#000000" xml:space="preserve" x="1536" y="972">Normal()</text>
	<text font-family="Helvetica" font-size="8" fill="#000000" xml:space="preserve" x="1536" y="997">RayIntersects()</text>
	<text font-family="Helvetica" font-size="8" fill="#000000" xml:space="preserve" x="1536" y="1022">GetAreaticCoordinates()</text>
	<text font-family="Helvetica" font-size="8" fill="#000000" xml:space="preserve" x="1536" y="1047">TextureCoordinatesAt()</text>
</g>
<g>
	<line stroke="#000000" stroke-opacity="1" x1="971" y1="462" x2="971" y2="427" />
	<line stroke="#000000" stroke-opacity="1" x1="971" y1="421" x2="965" y2="427" />
	<line stroke="#000000" stroke-opacity="1" x1="971" y1="421" x2="977" y2="427" />
	<line stroke="#000000" stroke-opacity="1" x1="965" y1="427" x2="977" y2="427" />
</g>
<g>
	<rect fill="#cbcbcb" stroke="none" stroke-opacity="1" x="1358" y="806" width="2" height="308" />
	<rect fill="#cbcbcb" stroke="none" stroke-opacity="1" x="1148" y="1112" width="212" height="2" />
	<rect fill="#ffffc0" stroke="black" stroke-width="1" stroke-opacity="1" x="1145" y="803" width="213" height="309" />
	<text font-family="Helvetica" font-size="8" fill="#000000" xml:space="preserve" font-weight="bold" font-style="italic" text-anchor="middle" x="1252" y="812">SimpleSceneObject</text>
	<line stroke="black" stroke-opacity="1" x1="1145" y1="829" x2="1358" y2="829" />
	<line stroke="black" stroke-opacity="1" x1="1145" y1="835" x2="1358" y2="835" />
	<text font-family="Helvetica" font-size="8" fill="#000000" xml:space="preserve" x="1148" y="844">SimpleSceneObject()</text>
	<text font-family="Helvetica" font-size="8" fill="#000000" xml:space="preserve" font-style="italic" x="1148" y="869">RayIntersects()</text>
	<text font-family="Helvetica" font-size="8" fill="#000000" xml:space="preserve" font-style="italic" x="1148" y="894">Normal()</text>
	<text font-family="Helvetica" font-size="8" fill="#000000" xml:space="preserve" x="1148" y="919">DiffuseColor()</text>
	<text font-family="Helvetica" font-size="8" fill="#000000" xml:space="preserve" x="1148" y="944">Specularity()</text>
	<text font-family="Helvetica" font-size="8" fill="#000000" xml:space="preserve" x="1148" y="969">KScalars()</text>
	<text font-family="Helvetica" font-size="8" fill="#000000" xml:space="preserve" x="1148" y="994">SpecularColor()</text>
	<text font-family="Helvetica" font-size="8" fill="#000000" xml:space="preserve" x="1148" y="1019">Opacity()</text>
	<text font-family="Helvetica" font-size="8" fill="#000000" xml:space="preserve" x="1148" y="1044">IndexOfRefraction()</text>
	<text font-family="Helvetica" font-size="8" fill="#000000" xml:space="preserve" x="1148" y="1069">IsTransparent()</text>
	<text font-family="Helvetica" font-size="8" fill="#000000" xml:space="preserve" font-style="italic" x="1148" y="1094">TextureCoordinatesAt()</text>
</g>
<g>
	<line stroke="#000000" stroke-opacity="1" x1="1532" y1="980" x2="1366" y2="953" />
	<line stroke="#000000" stroke-opacity="1" x1="1361" y1="953" x2="1365" y2="959" />
	<line stroke="#000000" stroke-opacity="1" x1="1361" y1="953" x2="1367" y2="948" />
	<line stroke="#000000" stroke-opacity="1" x1="1365" y1="959" x2="1367" y2="948" />
</g>
<g>
	<line stroke="#000000" stroke-opacity="1" x1="1144" y1="1080" x2="346" y2="836" />
</g>
<g>
	<line stroke="#000000" stroke-opacity="1" x1="346" y1="836" x2="347" y2="792" />
	<line stroke="#000000" stroke-opacity="1" x1="348" y1="787" x2="341" y2="792" />
	<line stroke="#000000" stroke-opacity="1" x1="348" y1="787" x2="353" y2="793" />
	<line stroke="#000000" stroke-opacity="1" x1="341" y1="792" x2="353" y2="793" />
</g>
<g>
	<rect fill="#cbcbcb" stroke="none" stroke-opacity="1" x="1631" y="85" width="2" height="304" />
	<rect fill="#cbcbcb" stroke="none" stroke-opacity="1" x="1449" y="387" width="184" height="2" />
	<rect fill="#ffffc0" stroke="black" stroke-width="1" stroke-opacity="1" x="1446" y="82" width="185" height="305" />
	<text font-family="Helvetica" font-size="8" fill="#000000" xml:space="preserve" font-weight="bold" text-anchor="middle" x="1539" y="91">ShadingData</text>
	<line stroke="black" stroke-opacity="1" x1="1446" y1="108" x2="1631" y2="108" />
	<text font-family="Helvetica" font-size="8" fill="#000000" xml:space="preserve" x="1449" y="117">is_transparent_</text>
	<text font-family="Helvetica" font-size="8" fill="#000000" xml:space="preserve" x="1449" y="142">is_textured_</text>
	<text font-family="Helvetica" font-size="8" fill="#000000" xml:space="preserve" x="1449" y="167">specularity_</text>
	<text font-family="Helvetica" font-size="8" fill="#000000" xml:space="preserve" x="1449" y="192">opacity_</text>
	<text font-family="Helvetica" font-size="8" fill="#000000" xml:space="preserve" x="1449" y="217">index_of_refraction_</text>
	<line stroke="black" stroke-opacity="1" x1="1446" y1="234" x2="1631" y2="234" />
	<text font-family="Helvetica" font-size="8" fill="#000000" xml:space="preserve" x="1449" y="243">ShadingData()</text>
	<text font-family="Helvetica" font-size="8" fill="#000000" xml:space="preserve" x="1449" y="268">ShadingData()</text>
	<text font-family="Helvetica" font-size="8" fill="#000000" xml:space="preserve" x="1449" y="293">ShadingData()</text>
	<text font-family="Helvetica" font-size="8" fill="#000000" xml:space="preserve" x="1449" y="318">ShadingData()</text>
	<text font-family="Helvetica" font-size="8" fill="#000000" xml:space="preserve" x="1449" y="343">~ShadingData()</text>
	<text font-family="Helvetica" font-size="8" fill="#000000" xml:space="preserve" x="1449" y="368">GetDiffuseColor()</text>
</g>
<g>
	<line stroke="black" stroke-opacity="1" x1="1076" y1="83" x2="1080" y2="90" />
	<line stroke="black" stroke-opacity="1" x1="1076" y1="83" x2="1083" y2="78" />
	<line stroke-dasharray="4,4" stroke="black" stroke-opacity="1" x1="1445" y1="180" x2="1076" y2="83" />
</g>
<g>
	<line stroke="black" stroke-opacity="1" x1="1445" y1="257" x2="1440" y2="249" />
	<line stroke="black" stroke-opacity="1" x1="1445" y1="257" x2="1437" y2="261" />
	<line stroke="black" stroke-opacity="1" x1="1076" y1="146" x2="1445" y2="257" />
	<polygon fill="#000000" stroke="black" stroke-opacity="1" points="1076,146 1083,141 1087,149 1080,153" />
</g>
<g>
	<line stroke="black" stroke-opacity="1" x1="1189" y1="802" x2="1197" y2="801" />
	<line stroke="black" stroke-opacity="1" x1="1189" y1="802" x2="1188" y2="793" />
	<line stroke-dasharray="4,4" stroke="black" stroke-opacity="1" x1="1515" y1="390" x2="1189" y2="802" />
</g>
<g>
	<line stroke="black" stroke-opacity="1" x1="1572" y1="390" x2="1563" y2="390" />
	<line stroke="black" stroke-opacity="1" x1="1572" y1="390" x2="1572" y2="398" />
	<line stroke="black" stroke-opacity="1" x1="1242" y1="802" x2="1572" y2="390" />
</g>
<g>
	<text font-family="Helvetica" font-size="8" fill="#000000" xml:space="preserve" x="1303" y="604">&lt;&lt;friend&gt;&gt;</text>
</g>
<g>
	<text font-family="Helvetica" font-size="8" fill="#000000" xml:space="preserve" x="1194" y="139">&lt;&lt;friend&gt;&gt;</text>
</g>
<g>
	<rect fill="#cbcbcb" stroke="none" stroke-opacity="1" x="1936" y="137" width="2" height="228" />
	<rect fill="#cbcbcb" stroke="none" stroke-opacity="1" x="1842" y="363" width="96" height="2" />
	<rect fill="#ffffc0" stroke="black" stroke-width="1" stroke-opacity="1" x="1839" y="134" width="97" height="229" />
	<text font-family="Helvetica" font-size="8" fill="#000000" xml:space="preserve" font-weight="bold" text-anchor="middle" x="1888" y="143">Texture</text>
	<line stroke="black" stroke-opacity="1" x1="1839" y1="160" x2="1936" y2="160" />
	<text font-family="Helvetica" font-size="8" fill="#000000" xml:space="preserve" x="1842" y="169">map_</text>
	<text font-family="Helvetica" font-size="8" fill="#000000" xml:space="preserve" x="1842" y="194">width_</text>
	<text font-family="Helvetica" font-size="8" fill="#000000" xml:space="preserve" x="1842" y="219">height_</text>
	<line stroke="black" stroke-opacity="1" x1="1839" y1="236" x2="1936" y2="236" />
	<text font-family="Helvetica" font-size="8" fill="#000000" xml:space="preserve" x="1842" y="245">Texture()</text>
	<text font-family="Helvetica" font-size="8" fill="#000000" xml:space="preserve" x="1842" y="270">Texture()</text>
	<text font-family="Helvetica" font-size="8" fill="#000000" xml:space="preserve" x="1842" y="295">~Texture()</text>
	<text font-family="Helvetica" font-size="8" fill="#000000" xml:space="preserve" x="1842" y="320">ColorAt()</text>
	<text font-family="Helvetica" font-size="8" fill="#000000" xml:space="preserve" x="1842" y="345">ColorAt()</text>
</g>
<g>
	<line stroke="black" stroke-opacity="1" x1="1838" y1="240" x2="1830" y2="236" />
	<line stroke="black" stroke-opacity="1" x1="1838" y1="240" x2="1834" y2="247" />
	<line stroke="black" stroke-opacity="1" x1="1634" y1="319" x2="1838" y2="240" />
</g>
</svg>
